<?xml version="1.0"?>
<svg xmlns="http://www.w3.org/2000/svg" xmlns:xlink="http://www.w3.org/1999/xlink" xmlns:svgjs="http://svgjs.com/svgjs" version="1.1" width="512" height="512" x="0" y="0" viewBox="0 0 512.038 512.038" style="enable-background:new 0 0 512 512" xml:space="preserve" class=""><g>
<g xmlns="http://www.w3.org/2000/svg">
	<g>
		<path d="M301.084,190.18c-0.74,0.446-1.479,0.891-2.247,1.318c-18.242,10.231-39.367,15.36-59.8,19.153    c-22.424,4.162-45.217,6.305-67.992,7.111c-6.438,0.228-12.876,0.341-19.314,0.341c-44.212,0-88.585-5.357-121.05-15.73    c-10.581-3.356-21.276-7.528-30.654-13.577l0,48.261c0,13.236,52.101,37.926,151.704,37.926c21.343,0,42.714-1.1,63.886-3.821    c15.768-2.029,31.497-4.93,46.763-9.425c10.079-2.958,20.243-6.542,29.298-11.947c3.489-2.086,7.111-4.39,9.538-7.727    c2.086-2.863,2.219-5.755,2.219-9.131c0-6.011,0-12.032,0-18.043c0-8.695,0-17.398,0-26.093    C302.696,189.269,301.852,189.715,301.084,190.18z" fill="#30b415" data-original="#000000" style="" class=""/>
	</g>
</g>
<g xmlns="http://www.w3.org/2000/svg">
	<g>
		<path d="M301.075,266.031c-0.74,0.446-1.479,0.891-2.247,1.318c-18.053,10.117-38.95,15.246-59.155,19.029    c-22.395,4.2-45.17,6.372-67.925,7.206c-6.675,0.247-13.35,0.37-20.034,0.37c-44.212,0-88.586-5.357-121.05-15.73    c-10.591-3.356-21.276-7.528-30.654-13.578v48.261h0.019c0,13.236,52.101,37.926,151.704,37.926c21.343,0,42.724-1.1,63.896-3.821    c15.777-2.029,31.507-4.93,46.772-9.425c10.079-2.958,20.243-6.542,29.288-11.956c5.736-3.423,11.738-7.784,11.738-15.028    c0-4.93,0-9.87,0-14.801c0-10.221,0-20.442,0-30.663c0-0.161,0-0.322,0-0.493C302.687,265.121,301.843,265.567,301.075,266.031z" fill="#30b415" data-original="#000000" style="" class=""/>
	</g>
</g>
<g xmlns="http://www.w3.org/2000/svg">
	<g>
		<path d="M301.084,341.874c-17.93,10.733-39.016,16.024-59.364,19.968c-22.329,4.324-45.065,6.58-67.774,7.509    c-7.396,0.303-14.81,0.455-22.215,0.455c-48.536,0-103.699-2.266-147.105-26.596c-0.778-0.436-1.508-0.882-2.247-1.318    c-0.777-0.465-1.612-0.91-2.361-1.384v48.251c0,13.236,52.101,37.926,151.704,37.926c21.362,0,42.752-1.1,63.943-3.831    c15.777-2.039,31.516-4.94,46.791-9.434c10.069-2.968,20.234-6.552,29.279-11.966c4.191-2.513,8.069-5.281,10.136-9.197    c0.986-1.868,1.564-4.001,1.564-6.495c0-5.319,0-10.638,0-15.957c0-9.756,0-19.503,0-29.317    C302.696,340.964,301.852,341.409,301.084,341.874z" fill="#30b415" data-original="#000000" style="" class=""/>
	</g>
</g>
<g xmlns="http://www.w3.org/2000/svg">
	<g>
		<path d="M509.658,228.115c-0.73,0.436-1.46,0.882-2.219,1.308c-2.598,1.451-5.262,2.816-7.993,4.096    c-21.75,10.221-47.142,14.971-70.523,18.11c-30.085,4.03-60.824,5.13-91.117,3.868c-2.522-0.104-5.006-0.256-7.519-0.398    c-2.626-0.152-5.272-0.237-7.898-0.417V311.4c3.556,0.265,7.111,0.531,10.676,0.721c1.849,0.095,3.688,0.228,5.537,0.303    c7.253,0.303,14.507,0.493,21.713,0.493c99.603,0,151.704-24.69,151.704-37.926v-48.27    C511.279,227.195,510.436,227.641,509.658,228.115z" fill="#30b415" data-original="#000000" style="" class=""/>
	</g>
</g>
<g xmlns="http://www.w3.org/2000/svg">
	<g>
		<path d="M509.668,303.957c-0.73,0.436-1.46,0.882-2.219,1.308c-2.607,1.46-5.281,2.816-8.012,4.086    c-16.82,7.803-35.783,12.136-53.76,15.426c-22.206,4.068-44.762,5.86-67.3,6.637c-13.559,0.465-27.022,0.474-40.562-0.076    c-2.522-0.104-5.006-0.256-7.519-0.398c-2.626-0.152-5.272-0.237-7.898-0.417v56.851c12.535,0.929,25.249,1.384,37.926,1.384    c99.603,0,151.704-24.69,151.704-37.926v-48.27C511.289,303.038,510.445,303.483,509.668,303.957z" fill="#30b415" data-original="#000000" style="" class=""/>
	</g>
</g>
<g xmlns="http://www.w3.org/2000/svg">
	<g>
		<path d="M301.056,417.726c-0.74,0.446-1.479,0.891-2.247,1.318c-2.351,1.337-4.836,2.626-7.509,3.849    c-0.54,0.247-1.09,0.484-1.64,0.721c-2.437,1.081-4.997,2.124-7.661,3.119c-1.403,0.531-2.854,1.043-4.324,1.555    c-1.602,0.559-3.243,1.09-4.911,1.621c-32.465,10.373-76.838,15.73-121.05,15.73s-88.585-5.357-121.05-15.73    c-8.951-2.844-17.835-6.267-26.055-10.866c-0.777-0.436-1.508-0.882-2.247-1.318c-0.777-0.465-1.612-0.91-2.361-1.384v48.27    c0,13.236,52.101,37.926,151.704,37.926s151.704-24.69,151.704-37.926v-48.27C302.668,416.815,301.824,417.261,301.056,417.726z" fill="#30b415" data-original="#000000" style="" class=""/>
	</g>
</g>
<g xmlns="http://www.w3.org/2000/svg">
	<g>
		<path d="M302.753,158.654c-3.755-7.718-13.416-11.7-20.764-15.028c-25.903-11.729-55.836-15.796-83.921-18.347    c-14.108-1.242-29.478-1.991-46.326-1.991c-99.612-0.009-151.713,24.68-151.713,37.916s52.101,37.926,151.704,37.926    c16.602,0,33.214-0.673,49.74-2.247c13.435-1.28,26.842-3.138,40.059-5.86c10.221-2.105,20.376-4.693,30.227-8.154    c6.978-2.446,13.9-5.3,20.243-9.131c4.257-2.579,8.979-5.812,10.913-10.581c0.303-0.74,0.54-1.526,0.503-2.323    C303.379,160.066,303.085,159.336,302.753,158.654z" fill="#30b415" data-original="#000000" style="" class=""/>
	</g>
</g>
<g xmlns="http://www.w3.org/2000/svg">
	<g>
		<path d="M509.677,152.244c-0.73,0.436-1.46,0.882-2.219,1.308c-2.617,1.47-5.291,2.826-8.021,4.096    c-16.924,7.86-35.992,12.184-54.101,15.483c-22.291,4.058-44.942,5.86-67.565,6.599c-13.246,0.436-26.415,0.474-39.642-0.076    c-3.025-0.123-6.002-0.303-8.998-0.484c-2.238-0.133-4.494-0.199-6.722-0.36v56.718c3.556,0.266,7.111,0.531,10.676,0.721    c1.849,0.095,3.688,0.228,5.537,0.303c7.253,0.303,14.507,0.493,21.713,0.493c99.603,0,151.704-24.69,151.704-37.926v-48.27    C511.298,151.324,510.455,151.77,509.677,152.244z" fill="#30b415" data-original="#000000" style="" class=""/>
	</g>
</g>
<g xmlns="http://www.w3.org/2000/svg">
	<g>
		<ellipse cx="360.325" cy="47.426" rx="151.704" ry="37.926" fill="#30b415" data-original="#000000" style="" class=""/>
	</g>
</g>
<g xmlns="http://www.w3.org/2000/svg">
	<g>
		<path d="M452.599,95.886c-22.319,4.485-45.075,6.846-67.802,7.86c-8.154,0.37-16.318,0.55-24.481,0.55    c-44.212,0-88.585-5.357-121.05-15.73c-1.659-0.531-3.3-1.062-4.902-1.621c-1.46-0.512-2.92-1.024-4.324-1.555    c-2.655-1.005-5.215-2.039-7.661-3.119c-0.54-0.247-1.1-0.474-1.631-0.721c-2.674-1.233-5.158-2.522-7.528-3.849    c-0.777-0.436-1.508-0.882-2.247-1.318c-0.778-0.465-1.612-0.91-2.361-1.384v32.294c1.271,0.142,2.541,0.313,3.812,0.465    c1.185,0.142,2.361,0.284,3.537,0.427c3.157,0.417,6.305,0.853,9.434,1.318c3.195,0.474,6.324,0.986,9.434,1.526    c1.754,0.303,3.518,0.597,5.243,0.92c2.759,0.521,5.433,1.071,8.097,1.64c0.92,0.199,1.82,0.398,2.74,0.597    c9.093,2.029,17.588,4.362,25.354,6.997c0.484,0.161,0.986,0.322,1.47,0.484c8.249,2.882,16.536,6.419,23.998,10.989    c9.624,5.888,19.835,14.971,20.594,27.003c4.068,0.303,8.135,0.626,12.222,0.825c1.195,0.057,2.38,0.142,3.584,0.199    c7.415,0.322,14.829,0.503,22.187,0.503c99.603,0,151.704-24.69,151.704-37.926v-48.27    C494.289,86.424,473.069,91.781,452.599,95.886z" fill="#30b415" data-original="#000000" style="" class=""/>
	</g>
</g>
<g xmlns="http://www.w3.org/2000/svg">
</g>
<g xmlns="http://www.w3.org/2000/svg">
</g>
<g xmlns="http://www.w3.org/2000/svg">
</g>
<g xmlns="http://www.w3.org/2000/svg">
</g>
<g xmlns="http://www.w3.org/2000/svg">
</g>
<g xmlns="http://www.w3.org/2000/svg">
</g>
<g xmlns="http://www.w3.org/2000/svg">
</g>
<g xmlns="http://www.w3.org/2000/svg">
</g>
<g xmlns="http://www.w3.org/2000/svg">
</g>
<g xmlns="http://www.w3.org/2000/svg">
</g>
<g xmlns="http://www.w3.org/2000/svg">
</g>
<g xmlns="http://www.w3.org/2000/svg">
</g>
<g xmlns="http://www.w3.org/2000/svg">
</g>
<g xmlns="http://www.w3.org/2000/svg">
</g>
<g xmlns="http://www.w3.org/2000/svg">
</g>
</g></svg>
